<mxfile host="app.diagrams.net" modified="2022-06-09T03:48:20.662Z" agent="5.0 (Macintosh; Intel Mac OS X 10_15_7) AppleWebKit/605.1.15 (KHTML, like Gecko) Version/14.1.1 Safari/605.1.15" etag="l6QmOISd3VZkW7BRZALZ" version="19.0.3" type="github">
  <diagram id="tnrZjxPkOS4aE1W1lCOJ" name="Page-1">
    <mxGraphModel dx="842" dy="846" grid="1" gridSize="10" guides="1" tooltips="1" connect="1" arrows="1" fold="1" page="1" pageScale="1" pageWidth="850" pageHeight="1100" math="0" shadow="0">
      <root>
        <mxCell id="0" />
        <mxCell id="1" parent="0" />
        <mxCell id="Wfu4o1p3sCmgXZIl0Cj2-8" style="edgeStyle=orthogonalEdgeStyle;rounded=0;orthogonalLoop=1;jettySize=auto;html=1;exitX=0.5;exitY=1;exitDx=0;exitDy=0;entryX=0.5;entryY=0;entryDx=0;entryDy=0;endArrow=none;endFill=0;" edge="1" parent="1" source="Wfu4o1p3sCmgXZIl0Cj2-1" target="Wfu4o1p3sCmgXZIl0Cj2-6">
          <mxGeometry relative="1" as="geometry" />
        </mxCell>
        <mxCell id="Wfu4o1p3sCmgXZIl0Cj2-1" value="User" style="rounded=0;whiteSpace=wrap;html=1;" vertex="1" parent="1">
          <mxGeometry x="330" y="60" width="120" height="60" as="geometry" />
        </mxCell>
        <mxCell id="Wfu4o1p3sCmgXZIl0Cj2-14" value="M" style="edgeStyle=orthogonalEdgeStyle;rounded=0;orthogonalLoop=1;jettySize=auto;html=1;exitX=0.5;exitY=1;exitDx=0;exitDy=0;entryX=0.5;entryY=0;entryDx=0;entryDy=0;endArrow=none;endFill=0;" edge="1" parent="1" source="Wfu4o1p3sCmgXZIl0Cj2-2" target="Wfu4o1p3sCmgXZIl0Cj2-12">
          <mxGeometry relative="1" as="geometry" />
        </mxCell>
        <mxCell id="Wfu4o1p3sCmgXZIl0Cj2-447" value="1" style="edgeStyle=orthogonalEdgeStyle;rounded=0;orthogonalLoop=1;jettySize=auto;html=1;exitX=0;exitY=0.5;exitDx=0;exitDy=0;entryX=0.5;entryY=0;entryDx=0;entryDy=0;endArrow=none;endFill=0;" edge="1" parent="1" source="Wfu4o1p3sCmgXZIl0Cj2-2" target="Wfu4o1p3sCmgXZIl0Cj2-446">
          <mxGeometry relative="1" as="geometry" />
        </mxCell>
        <mxCell id="Wfu4o1p3sCmgXZIl0Cj2-465" value="1" style="edgeStyle=orthogonalEdgeStyle;rounded=0;orthogonalLoop=1;jettySize=auto;html=1;exitX=0;exitY=1;exitDx=0;exitDy=0;endArrow=none;endFill=0;" edge="1" parent="1" source="Wfu4o1p3sCmgXZIl0Cj2-2" target="Wfu4o1p3sCmgXZIl0Cj2-464">
          <mxGeometry relative="1" as="geometry">
            <mxPoint x="70" y="610" as="targetPoint" />
            <Array as="points">
              <mxPoint x="90" y="290" />
            </Array>
          </mxGeometry>
        </mxCell>
        <mxCell id="Wfu4o1p3sCmgXZIl0Cj2-2" value="Student" style="rounded=0;whiteSpace=wrap;html=1;" vertex="1" parent="1">
          <mxGeometry x="140" y="230" width="120" height="60" as="geometry" />
        </mxCell>
        <mxCell id="Wfu4o1p3sCmgXZIl0Cj2-15" value="M" style="edgeStyle=orthogonalEdgeStyle;rounded=0;orthogonalLoop=1;jettySize=auto;html=1;exitX=0.5;exitY=1;exitDx=0;exitDy=0;endArrow=none;endFill=0;" edge="1" parent="1" source="Wfu4o1p3sCmgXZIl0Cj2-3" target="Wfu4o1p3sCmgXZIl0Cj2-13">
          <mxGeometry relative="1" as="geometry" />
        </mxCell>
        <mxCell id="Wfu4o1p3sCmgXZIl0Cj2-456" value="1" style="edgeStyle=orthogonalEdgeStyle;rounded=0;orthogonalLoop=1;jettySize=auto;html=1;exitX=1;exitY=1;exitDx=0;exitDy=0;entryX=0.5;entryY=0;entryDx=0;entryDy=0;endArrow=none;endFill=0;" edge="1" parent="1" source="Wfu4o1p3sCmgXZIl0Cj2-3" target="Wfu4o1p3sCmgXZIl0Cj2-450">
          <mxGeometry relative="1" as="geometry" />
        </mxCell>
        <mxCell id="Wfu4o1p3sCmgXZIl0Cj2-3" value="Professor" style="rounded=0;whiteSpace=wrap;html=1;" vertex="1" parent="1">
          <mxGeometry x="330" y="230" width="120" height="60" as="geometry" />
        </mxCell>
        <mxCell id="Wfu4o1p3sCmgXZIl0Cj2-4" value="Administrator" style="rounded=0;whiteSpace=wrap;html=1;" vertex="1" parent="1">
          <mxGeometry x="530" y="230" width="120" height="60" as="geometry" />
        </mxCell>
        <mxCell id="Wfu4o1p3sCmgXZIl0Cj2-5" value="Department" style="rounded=0;whiteSpace=wrap;html=1;" vertex="1" parent="1">
          <mxGeometry x="240" y="450" width="120" height="60" as="geometry" />
        </mxCell>
        <mxCell id="Wfu4o1p3sCmgXZIl0Cj2-9" style="edgeStyle=orthogonalEdgeStyle;rounded=0;orthogonalLoop=1;jettySize=auto;html=1;exitX=0;exitY=0.5;exitDx=0;exitDy=0;endArrow=none;endFill=0;" edge="1" parent="1" source="Wfu4o1p3sCmgXZIl0Cj2-6" target="Wfu4o1p3sCmgXZIl0Cj2-2">
          <mxGeometry relative="1" as="geometry" />
        </mxCell>
        <mxCell id="Wfu4o1p3sCmgXZIl0Cj2-10" style="edgeStyle=orthogonalEdgeStyle;rounded=0;orthogonalLoop=1;jettySize=auto;html=1;exitX=1;exitY=0.5;exitDx=0;exitDy=0;endArrow=none;endFill=0;" edge="1" parent="1" source="Wfu4o1p3sCmgXZIl0Cj2-6" target="Wfu4o1p3sCmgXZIl0Cj2-4">
          <mxGeometry relative="1" as="geometry" />
        </mxCell>
        <mxCell id="Wfu4o1p3sCmgXZIl0Cj2-511" style="edgeStyle=orthogonalEdgeStyle;rounded=0;orthogonalLoop=1;jettySize=auto;html=1;exitX=0.5;exitY=1;exitDx=0;exitDy=0;entryX=0.5;entryY=0;entryDx=0;entryDy=0;endArrow=none;endFill=0;strokeWidth=1;" edge="1" parent="1" source="Wfu4o1p3sCmgXZIl0Cj2-6" target="Wfu4o1p3sCmgXZIl0Cj2-3">
          <mxGeometry relative="1" as="geometry" />
        </mxCell>
        <mxCell id="Wfu4o1p3sCmgXZIl0Cj2-6" value="Is A" style="rhombus;whiteSpace=wrap;html=1;" vertex="1" parent="1">
          <mxGeometry x="350" y="140" width="80" height="80" as="geometry" />
        </mxCell>
        <mxCell id="Wfu4o1p3sCmgXZIl0Cj2-18" value="1" style="edgeStyle=orthogonalEdgeStyle;rounded=0;orthogonalLoop=1;jettySize=auto;html=1;exitX=0.5;exitY=1;exitDx=0;exitDy=0;entryX=0.25;entryY=0;entryDx=0;entryDy=0;endArrow=none;endFill=0;" edge="1" parent="1" source="Wfu4o1p3sCmgXZIl0Cj2-12" target="Wfu4o1p3sCmgXZIl0Cj2-5">
          <mxGeometry relative="1" as="geometry" />
        </mxCell>
        <mxCell id="Wfu4o1p3sCmgXZIl0Cj2-12" value="Majors In" style="rhombus;whiteSpace=wrap;html=1;" vertex="1" parent="1">
          <mxGeometry x="160" y="330" width="80" height="80" as="geometry" />
        </mxCell>
        <mxCell id="Wfu4o1p3sCmgXZIl0Cj2-19" value="1" style="edgeStyle=orthogonalEdgeStyle;rounded=0;orthogonalLoop=1;jettySize=auto;html=1;exitX=0.5;exitY=1;exitDx=0;exitDy=0;entryX=0.75;entryY=0;entryDx=0;entryDy=0;endArrow=none;endFill=0;" edge="1" parent="1" source="Wfu4o1p3sCmgXZIl0Cj2-13" target="Wfu4o1p3sCmgXZIl0Cj2-5">
          <mxGeometry relative="1" as="geometry" />
        </mxCell>
        <mxCell id="Wfu4o1p3sCmgXZIl0Cj2-13" value="Works In" style="rhombus;whiteSpace=wrap;html=1;" vertex="1" parent="1">
          <mxGeometry x="350" y="330" width="80" height="80" as="geometry" />
        </mxCell>
        <mxCell id="Wfu4o1p3sCmgXZIl0Cj2-443" value="1" style="edgeStyle=orthogonalEdgeStyle;rounded=0;orthogonalLoop=1;jettySize=auto;html=1;endArrow=none;endFill=0;" edge="1" parent="1" source="Wfu4o1p3sCmgXZIl0Cj2-441" target="Wfu4o1p3sCmgXZIl0Cj2-5">
          <mxGeometry relative="1" as="geometry" />
        </mxCell>
        <mxCell id="Wfu4o1p3sCmgXZIl0Cj2-444" value="M" style="edgeStyle=orthogonalEdgeStyle;rounded=0;orthogonalLoop=1;jettySize=auto;html=1;exitX=0;exitY=0.5;exitDx=0;exitDy=0;endArrow=none;endFill=0;strokeWidth=3;" edge="1" parent="1" source="Wfu4o1p3sCmgXZIl0Cj2-441" target="Wfu4o1p3sCmgXZIl0Cj2-442">
          <mxGeometry relative="1" as="geometry" />
        </mxCell>
        <mxCell id="Wfu4o1p3sCmgXZIl0Cj2-441" value="Offers" style="rhombus;whiteSpace=wrap;html=1;" vertex="1" parent="1">
          <mxGeometry x="260" y="540" width="80" height="80" as="geometry" />
        </mxCell>
        <mxCell id="Wfu4o1p3sCmgXZIl0Cj2-459" value="1" style="edgeStyle=orthogonalEdgeStyle;rounded=0;orthogonalLoop=1;jettySize=auto;html=1;exitX=0.25;exitY=1;exitDx=0;exitDy=0;endArrow=none;endFill=0;" edge="1" parent="1" source="Wfu4o1p3sCmgXZIl0Cj2-442" target="Wfu4o1p3sCmgXZIl0Cj2-458">
          <mxGeometry relative="1" as="geometry" />
        </mxCell>
        <mxCell id="Wfu4o1p3sCmgXZIl0Cj2-442" value="Courses" style="rounded=0;whiteSpace=wrap;html=1;" vertex="1" parent="1">
          <mxGeometry x="110" y="550" width="120" height="60" as="geometry" />
        </mxCell>
        <mxCell id="Wfu4o1p3sCmgXZIl0Cj2-461" value="M" style="edgeStyle=orthogonalEdgeStyle;rounded=0;orthogonalLoop=1;jettySize=auto;html=1;exitX=0.5;exitY=1;exitDx=0;exitDy=0;entryX=0.5;entryY=0;entryDx=0;entryDy=0;endArrow=none;endFill=0;startArrow=none;strokeWidth=3;" edge="1" parent="1" source="Wfu4o1p3sCmgXZIl0Cj2-467" target="Wfu4o1p3sCmgXZIl0Cj2-457">
          <mxGeometry relative="1" as="geometry" />
        </mxCell>
        <mxCell id="Wfu4o1p3sCmgXZIl0Cj2-445" value="Classes" style="rounded=0;whiteSpace=wrap;html=1;" vertex="1" parent="1">
          <mxGeometry x="190" y="750" width="120" height="60" as="geometry" />
        </mxCell>
        <mxCell id="Wfu4o1p3sCmgXZIl0Cj2-455" value="M" style="edgeStyle=orthogonalEdgeStyle;rounded=0;orthogonalLoop=1;jettySize=auto;html=1;exitX=0.5;exitY=1;exitDx=0;exitDy=0;entryX=0;entryY=0.5;entryDx=0;entryDy=0;endArrow=none;endFill=0;" edge="1" parent="1" source="Wfu4o1p3sCmgXZIl0Cj2-446" target="Wfu4o1p3sCmgXZIl0Cj2-445">
          <mxGeometry relative="1" as="geometry" />
        </mxCell>
        <mxCell id="Wfu4o1p3sCmgXZIl0Cj2-446" value="Takes" style="rhombus;whiteSpace=wrap;html=1;" vertex="1" parent="1">
          <mxGeometry x="10" y="350" width="80" height="80" as="geometry" />
        </mxCell>
        <mxCell id="Wfu4o1p3sCmgXZIl0Cj2-452" value="M" style="edgeStyle=orthogonalEdgeStyle;rounded=0;orthogonalLoop=1;jettySize=auto;html=1;exitX=0;exitY=1;exitDx=0;exitDy=0;entryX=1;entryY=0.75;entryDx=0;entryDy=0;endArrow=none;endFill=0;strokeWidth=3;" edge="1" parent="1" source="Wfu4o1p3sCmgXZIl0Cj2-450" target="Wfu4o1p3sCmgXZIl0Cj2-445">
          <mxGeometry relative="1" as="geometry" />
        </mxCell>
        <mxCell id="Wfu4o1p3sCmgXZIl0Cj2-450" value="Teaches" style="rhombus;whiteSpace=wrap;html=1;" vertex="1" parent="1">
          <mxGeometry x="410" y="490" width="80" height="80" as="geometry" />
        </mxCell>
        <mxCell id="Wfu4o1p3sCmgXZIl0Cj2-558" value="M" style="edgeStyle=orthogonalEdgeStyle;rounded=0;orthogonalLoop=1;jettySize=auto;html=1;exitX=1;exitY=0.5;exitDx=0;exitDy=0;entryX=0;entryY=0.5;entryDx=0;entryDy=0;endArrow=none;endFill=0;strokeWidth=1;" edge="1" parent="1" source="Wfu4o1p3sCmgXZIl0Cj2-457" target="Wfu4o1p3sCmgXZIl0Cj2-469">
          <mxGeometry relative="1" as="geometry" />
        </mxCell>
        <mxCell id="Wfu4o1p3sCmgXZIl0Cj2-457" value="Assignments" style="rounded=0;whiteSpace=wrap;html=1;" vertex="1" parent="1">
          <mxGeometry x="190" y="930" width="120" height="60" as="geometry" />
        </mxCell>
        <mxCell id="Wfu4o1p3sCmgXZIl0Cj2-460" value="M" style="edgeStyle=orthogonalEdgeStyle;rounded=0;orthogonalLoop=1;jettySize=auto;html=1;exitX=1;exitY=0.5;exitDx=0;exitDy=0;endArrow=none;endFill=0;strokeWidth=3;" edge="1" parent="1" source="Wfu4o1p3sCmgXZIl0Cj2-458" target="Wfu4o1p3sCmgXZIl0Cj2-445">
          <mxGeometry relative="1" as="geometry" />
        </mxCell>
        <mxCell id="Wfu4o1p3sCmgXZIl0Cj2-458" value="Give" style="rhombus;whiteSpace=wrap;html=1;" vertex="1" parent="1">
          <mxGeometry x="100" y="640" width="80" height="80" as="geometry" />
        </mxCell>
        <mxCell id="Wfu4o1p3sCmgXZIl0Cj2-462" value="Assignment Category" style="rounded=0;whiteSpace=wrap;html=1;" vertex="1" parent="1">
          <mxGeometry x="480" y="930" width="120" height="60" as="geometry" />
        </mxCell>
        <mxCell id="Wfu4o1p3sCmgXZIl0Cj2-466" value="M" style="edgeStyle=orthogonalEdgeStyle;rounded=0;orthogonalLoop=1;jettySize=auto;html=1;exitX=1;exitY=0.5;exitDx=0;exitDy=0;entryX=0;entryY=0.5;entryDx=0;entryDy=0;endArrow=none;endFill=0;" edge="1" parent="1" source="Wfu4o1p3sCmgXZIl0Cj2-464" target="Wfu4o1p3sCmgXZIl0Cj2-457">
          <mxGeometry relative="1" as="geometry" />
        </mxCell>
        <mxCell id="Wfu4o1p3sCmgXZIl0Cj2-464" value="Submits" style="rhombus;whiteSpace=wrap;html=1;" vertex="1" parent="1">
          <mxGeometry x="60" y="920" width="80" height="80" as="geometry" />
        </mxCell>
        <mxCell id="Wfu4o1p3sCmgXZIl0Cj2-467" value="Assign" style="rhombus;whiteSpace=wrap;html=1;" vertex="1" parent="1">
          <mxGeometry x="210" y="830" width="80" height="80" as="geometry" />
        </mxCell>
        <mxCell id="Wfu4o1p3sCmgXZIl0Cj2-468" value="M" style="edgeStyle=orthogonalEdgeStyle;rounded=0;orthogonalLoop=1;jettySize=auto;html=1;exitX=0.5;exitY=1;exitDx=0;exitDy=0;entryX=0.5;entryY=0;entryDx=0;entryDy=0;endArrow=none;endFill=0;" edge="1" parent="1" source="Wfu4o1p3sCmgXZIl0Cj2-445" target="Wfu4o1p3sCmgXZIl0Cj2-467">
          <mxGeometry relative="1" as="geometry">
            <mxPoint x="250" y="810" as="sourcePoint" />
            <mxPoint x="250" y="900" as="targetPoint" />
          </mxGeometry>
        </mxCell>
        <mxCell id="Wfu4o1p3sCmgXZIl0Cj2-559" value="1" style="edgeStyle=orthogonalEdgeStyle;rounded=0;orthogonalLoop=1;jettySize=auto;html=1;exitX=1;exitY=0.5;exitDx=0;exitDy=0;entryX=0;entryY=0.5;entryDx=0;entryDy=0;endArrow=none;endFill=0;strokeWidth=1;" edge="1" parent="1" source="Wfu4o1p3sCmgXZIl0Cj2-469" target="Wfu4o1p3sCmgXZIl0Cj2-462">
          <mxGeometry relative="1" as="geometry" />
        </mxCell>
        <mxCell id="Wfu4o1p3sCmgXZIl0Cj2-469" value="Belongs to" style="rhombus;whiteSpace=wrap;html=1;" vertex="1" parent="1">
          <mxGeometry x="350" y="920" width="80" height="80" as="geometry" />
        </mxCell>
        <mxCell id="Wfu4o1p3sCmgXZIl0Cj2-512" value="1" style="edgeStyle=orthogonalEdgeStyle;rounded=0;orthogonalLoop=1;jettySize=auto;html=1;endArrow=none;endFill=0;strokeWidth=1;" edge="1" parent="1" source="Wfu4o1p3sCmgXZIl0Cj2-471" target="Wfu4o1p3sCmgXZIl0Cj2-467">
          <mxGeometry relative="1" as="geometry" />
        </mxCell>
        <mxCell id="Wfu4o1p3sCmgXZIl0Cj2-471" value="Classes" style="rounded=0;whiteSpace=wrap;html=1;" vertex="1" parent="1">
          <mxGeometry x="200" y="755" width="100" height="50" as="geometry" />
        </mxCell>
        <mxCell id="Wfu4o1p3sCmgXZIl0Cj2-472" value="Assignments" style="rounded=0;whiteSpace=wrap;html=1;" vertex="1" parent="1">
          <mxGeometry x="200" y="940" width="100" height="40" as="geometry" />
        </mxCell>
        <mxCell id="Wfu4o1p3sCmgXZIl0Cj2-477" style="edgeStyle=orthogonalEdgeStyle;rounded=0;orthogonalLoop=1;jettySize=auto;html=1;exitX=1;exitY=1;exitDx=0;exitDy=0;entryX=0;entryY=0;entryDx=0;entryDy=0;endArrow=none;endFill=0;strokeWidth=1;" edge="1" parent="1" source="Wfu4o1p3sCmgXZIl0Cj2-473" target="Wfu4o1p3sCmgXZIl0Cj2-1">
          <mxGeometry relative="1" as="geometry">
            <Array as="points">
              <mxPoint x="281" y="60" />
            </Array>
          </mxGeometry>
        </mxCell>
        <mxCell id="Wfu4o1p3sCmgXZIl0Cj2-473" value="&lt;u&gt;UserID&lt;/u&gt;" style="ellipse;whiteSpace=wrap;html=1;" vertex="1" parent="1">
          <mxGeometry x="260" y="10" width="60" height="40" as="geometry" />
        </mxCell>
        <mxCell id="Wfu4o1p3sCmgXZIl0Cj2-483" style="edgeStyle=orthogonalEdgeStyle;rounded=0;orthogonalLoop=1;jettySize=auto;html=1;exitX=0.5;exitY=1;exitDx=0;exitDy=0;entryX=0.25;entryY=0;entryDx=0;entryDy=0;endArrow=none;endFill=0;strokeWidth=1;" edge="1" parent="1" source="Wfu4o1p3sCmgXZIl0Cj2-474" target="Wfu4o1p3sCmgXZIl0Cj2-1">
          <mxGeometry relative="1" as="geometry" />
        </mxCell>
        <mxCell id="Wfu4o1p3sCmgXZIl0Cj2-474" value="Name First" style="ellipse;whiteSpace=wrap;html=1;" vertex="1" parent="1">
          <mxGeometry x="330" y="10" width="60" height="40" as="geometry" />
        </mxCell>
        <mxCell id="Wfu4o1p3sCmgXZIl0Cj2-482" style="edgeStyle=orthogonalEdgeStyle;rounded=0;orthogonalLoop=1;jettySize=auto;html=1;exitX=0.5;exitY=1;exitDx=0;exitDy=0;entryX=1;entryY=0;entryDx=0;entryDy=0;endArrow=none;endFill=0;strokeWidth=1;" edge="1" parent="1" source="Wfu4o1p3sCmgXZIl0Cj2-475" target="Wfu4o1p3sCmgXZIl0Cj2-1">
          <mxGeometry relative="1" as="geometry">
            <Array as="points">
              <mxPoint x="510" y="60" />
            </Array>
          </mxGeometry>
        </mxCell>
        <mxCell id="Wfu4o1p3sCmgXZIl0Cj2-475" value="DOB" style="ellipse;whiteSpace=wrap;html=1;" vertex="1" parent="1">
          <mxGeometry x="480" y="10" width="60" height="40" as="geometry" />
        </mxCell>
        <mxCell id="Wfu4o1p3sCmgXZIl0Cj2-481" style="edgeStyle=orthogonalEdgeStyle;rounded=0;orthogonalLoop=1;jettySize=auto;html=1;exitX=0.5;exitY=1;exitDx=0;exitDy=0;entryX=0.917;entryY=-0.017;entryDx=0;entryDy=0;entryPerimeter=0;endArrow=none;endFill=0;strokeWidth=1;" edge="1" parent="1" source="Wfu4o1p3sCmgXZIl0Cj2-476" target="Wfu4o1p3sCmgXZIl0Cj2-1">
          <mxGeometry relative="1" as="geometry" />
        </mxCell>
        <mxCell id="Wfu4o1p3sCmgXZIl0Cj2-476" value="Name Last" style="ellipse;whiteSpace=wrap;html=1;" vertex="1" parent="1">
          <mxGeometry x="410" y="10" width="60" height="40" as="geometry" />
        </mxCell>
        <mxCell id="Wfu4o1p3sCmgXZIl0Cj2-488" style="edgeStyle=orthogonalEdgeStyle;rounded=0;orthogonalLoop=1;jettySize=auto;html=1;exitX=0.5;exitY=0;exitDx=0;exitDy=0;entryX=0.5;entryY=1;entryDx=0;entryDy=0;endArrow=none;endFill=0;strokeWidth=1;" edge="1" parent="1" source="Wfu4o1p3sCmgXZIl0Cj2-487" target="Wfu4o1p3sCmgXZIl0Cj2-464">
          <mxGeometry relative="1" as="geometry" />
        </mxCell>
        <mxCell id="Wfu4o1p3sCmgXZIl0Cj2-487" value="Time" style="ellipse;whiteSpace=wrap;html=1;" vertex="1" parent="1">
          <mxGeometry x="70" y="1020" width="60" height="40" as="geometry" />
        </mxCell>
        <mxCell id="Wfu4o1p3sCmgXZIl0Cj2-553" style="edgeStyle=orthogonalEdgeStyle;rounded=0;orthogonalLoop=1;jettySize=auto;html=1;exitX=1;exitY=0;exitDx=0;exitDy=0;entryX=0;entryY=1;entryDx=0;entryDy=0;endArrow=none;endFill=0;strokeWidth=1;" edge="1" parent="1" source="Wfu4o1p3sCmgXZIl0Cj2-490" target="Wfu4o1p3sCmgXZIl0Cj2-472">
          <mxGeometry relative="1" as="geometry" />
        </mxCell>
        <mxCell id="Wfu4o1p3sCmgXZIl0Cj2-490" value="Due&amp;nbsp;&lt;span style=&quot;caret-color: rgba(0, 0, 0, 0); color: rgba(0, 0, 0, 0); font-family: monospace; font-size: 0px; text-align: start;&quot;&gt;%3CmxGraphModel%3E%3Croot%3E%3CmxCell%20id%3D%220%22%2F%3E%3CmxCell%20id%3D%221%22%20parent%3D%220%22%2F%3E%3CmxCell%20id%3D%222%22%20value%3D%22Time%22%20style%3D%22ellipse%3BwhiteSpace%3Dwrap%3Bhtml%3D1%3B%22%20vertex%3D%221%22%20parent%3D%221%22%3E%3CmxGeometry%20x%3D%2270%22%20y%3D%221030%22%20width%3D%2260%22%20height%3D%2240%22%20as%3D%22geometry%22%2F%3E%3C%2FmxCell%3E%3C%2Froot%3E%3C%2FmxGraphModel%3E&lt;/span&gt;&lt;br&gt;Datetime" style="ellipse;whiteSpace=wrap;html=1;" vertex="1" parent="1">
          <mxGeometry x="150" y="1010" width="60" height="40" as="geometry" />
        </mxCell>
        <mxCell id="Wfu4o1p3sCmgXZIl0Cj2-500" style="edgeStyle=orthogonalEdgeStyle;rounded=0;orthogonalLoop=1;jettySize=auto;html=1;exitX=1;exitY=0;exitDx=0;exitDy=0;entryX=0;entryY=1;entryDx=0;entryDy=0;endArrow=none;endFill=0;strokeWidth=1;" edge="1" parent="1" source="Wfu4o1p3sCmgXZIl0Cj2-492" target="Wfu4o1p3sCmgXZIl0Cj2-464">
          <mxGeometry relative="1" as="geometry" />
        </mxCell>
        <mxCell id="Wfu4o1p3sCmgXZIl0Cj2-492" value="Grade" style="ellipse;whiteSpace=wrap;html=1;" vertex="1" parent="1">
          <mxGeometry x="10" y="990" width="60" height="40" as="geometry" />
        </mxCell>
        <mxCell id="Wfu4o1p3sCmgXZIl0Cj2-561" style="edgeStyle=orthogonalEdgeStyle;rounded=0;orthogonalLoop=1;jettySize=auto;html=1;exitX=0;exitY=0.5;exitDx=0;exitDy=0;entryX=1;entryY=0.5;entryDx=0;entryDy=0;endArrow=none;endFill=0;strokeWidth=1;" edge="1" parent="1" source="Wfu4o1p3sCmgXZIl0Cj2-501" target="Wfu4o1p3sCmgXZIl0Cj2-462">
          <mxGeometry relative="1" as="geometry" />
        </mxCell>
        <mxCell id="Wfu4o1p3sCmgXZIl0Cj2-501" value="&lt;u&gt;Name&lt;/u&gt;" style="ellipse;whiteSpace=wrap;html=1;" vertex="1" parent="1">
          <mxGeometry x="650" y="910" width="60" height="40" as="geometry" />
        </mxCell>
        <mxCell id="Wfu4o1p3sCmgXZIl0Cj2-562" style="edgeStyle=orthogonalEdgeStyle;rounded=0;orthogonalLoop=1;jettySize=auto;html=1;exitX=0;exitY=0.5;exitDx=0;exitDy=0;entryX=1;entryY=0.75;entryDx=0;entryDy=0;fontSize=9;endArrow=none;endFill=0;strokeWidth=1;" edge="1" parent="1" source="Wfu4o1p3sCmgXZIl0Cj2-502" target="Wfu4o1p3sCmgXZIl0Cj2-462">
          <mxGeometry relative="1" as="geometry" />
        </mxCell>
        <mxCell id="Wfu4o1p3sCmgXZIl0Cj2-502" value="Weight" style="ellipse;whiteSpace=wrap;html=1;" vertex="1" parent="1">
          <mxGeometry x="650" y="970" width="60" height="40" as="geometry" />
        </mxCell>
        <mxCell id="Wfu4o1p3sCmgXZIl0Cj2-508" value="&lt;h1&gt;LMS Phase_1&lt;/h1&gt;&lt;div&gt;by Rian Brumfield&lt;/div&gt;&lt;div&gt;CS6016&lt;/div&gt;&lt;div&gt;06.09.22&lt;/div&gt;" style="text;html=1;strokeColor=none;fillColor=none;spacing=5;spacingTop=-20;whiteSpace=wrap;overflow=hidden;rounded=0;" vertex="1" parent="1">
          <mxGeometry x="5" y="10" width="190" height="120" as="geometry" />
        </mxCell>
        <mxCell id="Wfu4o1p3sCmgXZIl0Cj2-521" style="edgeStyle=orthogonalEdgeStyle;rounded=0;orthogonalLoop=1;jettySize=auto;html=1;exitX=0.5;exitY=1;exitDx=0;exitDy=0;entryX=0.75;entryY=0;entryDx=0;entryDy=0;endArrow=none;endFill=0;strokeWidth=1;" edge="1" parent="1" source="Wfu4o1p3sCmgXZIl0Cj2-514" target="Wfu4o1p3sCmgXZIl0Cj2-442">
          <mxGeometry relative="1" as="geometry" />
        </mxCell>
        <mxCell id="Wfu4o1p3sCmgXZIl0Cj2-514" value="Number&lt;span style=&quot;caret-color: rgba(0, 0, 0, 0); color: rgba(0, 0, 0, 0); font-family: monospace; font-size: 0px; text-align: start;&quot;&gt;%3CmxGraphModel%3E%3Croot%3E%3CmxCell%20id%3D%220%22%2F%3E%3CmxCell%20id%3D%221%22%20parent%3D%220%22%2F%3E%3CmxCell%20id%3D%222%22%20value%3D%22Name%22%20style%3D%22ellipse%3BwhiteSpace%3Dwrap%3Bhtml%3D1%3B%22%20vertex%3D%221%22%20parent%3D%221%22%3E%3CmxGeometry%20x%3D%22130%22%20y%3D%22480%22%20width%3D%2260%22%20height%3D%2240%22%20as%3D%22geometry%22%2F%3E%3C%2FmxCell%3E%3C%2Froot%3E%3C%2FmxGraphModel%3E&lt;/span&gt;" style="ellipse;whiteSpace=wrap;html=1;" vertex="1" parent="1">
          <mxGeometry x="170" y="490" width="60" height="40" as="geometry" />
        </mxCell>
        <mxCell id="Wfu4o1p3sCmgXZIl0Cj2-517" style="edgeStyle=orthogonalEdgeStyle;rounded=0;orthogonalLoop=1;jettySize=auto;html=1;exitX=0.5;exitY=1;exitDx=0;exitDy=0;entryX=0.167;entryY=0;entryDx=0;entryDy=0;entryPerimeter=0;endArrow=none;endFill=0;strokeWidth=1;" edge="1" parent="1" source="Wfu4o1p3sCmgXZIl0Cj2-515" target="Wfu4o1p3sCmgXZIl0Cj2-442">
          <mxGeometry relative="1" as="geometry" />
        </mxCell>
        <mxCell id="Wfu4o1p3sCmgXZIl0Cj2-515" value="Name" style="ellipse;whiteSpace=wrap;html=1;" vertex="1" parent="1">
          <mxGeometry x="100" y="490" width="60" height="40" as="geometry" />
        </mxCell>
        <mxCell id="Wfu4o1p3sCmgXZIl0Cj2-520" style="edgeStyle=orthogonalEdgeStyle;rounded=0;orthogonalLoop=1;jettySize=auto;html=1;exitX=0.5;exitY=1;exitDx=0;exitDy=0;entryX=0.459;entryY=0.022;entryDx=0;entryDy=0;entryPerimeter=0;endArrow=none;endFill=0;strokeWidth=1;" edge="1" parent="1" source="Wfu4o1p3sCmgXZIl0Cj2-516" target="Wfu4o1p3sCmgXZIl0Cj2-442">
          <mxGeometry relative="1" as="geometry" />
        </mxCell>
        <mxCell id="Wfu4o1p3sCmgXZIl0Cj2-516" value="CatID" style="ellipse;whiteSpace=wrap;html=1;fontStyle=4" vertex="1" parent="1">
          <mxGeometry x="135" y="440" width="60" height="40" as="geometry" />
        </mxCell>
        <mxCell id="Wfu4o1p3sCmgXZIl0Cj2-528" style="edgeStyle=orthogonalEdgeStyle;rounded=0;orthogonalLoop=1;jettySize=auto;html=1;exitX=0.5;exitY=1;exitDx=0;exitDy=0;entryX=0.167;entryY=0.033;entryDx=0;entryDy=0;entryPerimeter=0;endArrow=none;endFill=0;strokeWidth=1;" edge="1" parent="1" source="Wfu4o1p3sCmgXZIl0Cj2-524" target="Wfu4o1p3sCmgXZIl0Cj2-445">
          <mxGeometry relative="1" as="geometry" />
        </mxCell>
        <mxCell id="Wfu4o1p3sCmgXZIl0Cj2-524" value="Location" style="ellipse;whiteSpace=wrap;html=1;" vertex="1" parent="1">
          <mxGeometry x="180" y="700" width="60" height="40" as="geometry" />
        </mxCell>
        <mxCell id="Wfu4o1p3sCmgXZIl0Cj2-529" style="edgeStyle=orthogonalEdgeStyle;rounded=0;orthogonalLoop=1;jettySize=auto;html=1;exitX=0.5;exitY=1;exitDx=0;exitDy=0;entryX=0.833;entryY=-0.017;entryDx=0;entryDy=0;entryPerimeter=0;endArrow=none;endFill=0;strokeWidth=1;" edge="1" parent="1" source="Wfu4o1p3sCmgXZIl0Cj2-525" target="Wfu4o1p3sCmgXZIl0Cj2-445">
          <mxGeometry relative="1" as="geometry" />
        </mxCell>
        <mxCell id="Wfu4o1p3sCmgXZIl0Cj2-525" value="&lt;span style=&quot;font-weight: normal;&quot;&gt;Datetime&lt;/span&gt;" style="ellipse;whiteSpace=wrap;html=1;fontStyle=1" vertex="1" parent="1">
          <mxGeometry x="260" y="650" width="60" height="40" as="geometry" />
        </mxCell>
        <mxCell id="Wfu4o1p3sCmgXZIl0Cj2-555" style="edgeStyle=orthogonalEdgeStyle;rounded=0;orthogonalLoop=1;jettySize=auto;html=1;exitX=0.5;exitY=0;exitDx=0;exitDy=0;entryX=0.75;entryY=1;entryDx=0;entryDy=0;endArrow=none;endFill=0;strokeWidth=1;" edge="1" parent="1" source="Wfu4o1p3sCmgXZIl0Cj2-533" target="Wfu4o1p3sCmgXZIl0Cj2-457">
          <mxGeometry relative="1" as="geometry" />
        </mxCell>
        <mxCell id="Wfu4o1p3sCmgXZIl0Cj2-533" value="&lt;span style=&quot;border-bottom: 1px dotted&quot;&gt;Name&lt;/span&gt;" style="ellipse;whiteSpace=wrap;html=1;align=center;" vertex="1" parent="1">
          <mxGeometry x="250" y="1050" width="60" height="40" as="geometry" />
        </mxCell>
        <mxCell id="Wfu4o1p3sCmgXZIl0Cj2-536" style="edgeStyle=orthogonalEdgeStyle;rounded=0;orthogonalLoop=1;jettySize=auto;html=1;exitX=0;exitY=0.5;exitDx=0;exitDy=0;entryX=1;entryY=0.5;entryDx=0;entryDy=0;endArrow=none;endFill=0;strokeWidth=1;" edge="1" parent="1" source="Wfu4o1p3sCmgXZIl0Cj2-534" target="Wfu4o1p3sCmgXZIl0Cj2-445">
          <mxGeometry relative="1" as="geometry" />
        </mxCell>
        <mxCell id="Wfu4o1p3sCmgXZIl0Cj2-534" value="&lt;span style=&quot;border-bottom: 1px dotted&quot;&gt;Name&lt;/span&gt;" style="ellipse;whiteSpace=wrap;html=1;align=center;" vertex="1" parent="1">
          <mxGeometry x="370" y="760" width="100" height="40" as="geometry" />
        </mxCell>
        <mxCell id="Wfu4o1p3sCmgXZIl0Cj2-539" style="edgeStyle=orthogonalEdgeStyle;rounded=0;orthogonalLoop=1;jettySize=auto;html=1;exitX=0.5;exitY=1;exitDx=0;exitDy=0;entryX=1;entryY=0.25;entryDx=0;entryDy=0;endArrow=none;endFill=0;strokeWidth=1;" edge="1" parent="1" source="Wfu4o1p3sCmgXZIl0Cj2-538" target="Wfu4o1p3sCmgXZIl0Cj2-445">
          <mxGeometry relative="1" as="geometry">
            <Array as="points">
              <mxPoint x="325" y="765" />
            </Array>
          </mxGeometry>
        </mxCell>
        <mxCell id="Wfu4o1p3sCmgXZIl0Cj2-538" value="&lt;span style=&quot;border-bottom: 1px dotted&quot;&gt;Semester&lt;/span&gt;" style="ellipse;whiteSpace=wrap;html=1;align=center;" vertex="1" parent="1">
          <mxGeometry x="290" y="690" width="70" height="35" as="geometry" />
        </mxCell>
        <mxCell id="Wfu4o1p3sCmgXZIl0Cj2-542" style="edgeStyle=orthogonalEdgeStyle;rounded=0;orthogonalLoop=1;jettySize=auto;html=1;exitX=0;exitY=0.5;exitDx=0;exitDy=0;entryX=1;entryY=0.5;entryDx=0;entryDy=0;endArrow=none;endFill=0;strokeWidth=1;" edge="1" parent="1" source="Wfu4o1p3sCmgXZIl0Cj2-540" target="Wfu4o1p3sCmgXZIl0Cj2-5">
          <mxGeometry relative="1" as="geometry" />
        </mxCell>
        <mxCell id="Wfu4o1p3sCmgXZIl0Cj2-540" value="dID" style="ellipse;whiteSpace=wrap;html=1;" vertex="1" parent="1">
          <mxGeometry x="370" y="460" width="60" height="40" as="geometry" />
        </mxCell>
        <mxCell id="Wfu4o1p3sCmgXZIl0Cj2-543" style="edgeStyle=orthogonalEdgeStyle;rounded=0;orthogonalLoop=1;jettySize=auto;html=1;exitX=0.5;exitY=1;exitDx=0;exitDy=0;endArrow=none;endFill=0;strokeWidth=1;" edge="1" parent="1" source="Wfu4o1p3sCmgXZIl0Cj2-541" target="Wfu4o1p3sCmgXZIl0Cj2-5">
          <mxGeometry relative="1" as="geometry" />
        </mxCell>
        <mxCell id="Wfu4o1p3sCmgXZIl0Cj2-541" value="Name&lt;span style=&quot;caret-color: rgba(0, 0, 0, 0); color: rgba(0, 0, 0, 0); font-family: monospace; font-size: 0px; text-align: start;&quot;&gt;%3CmxGraphModel%3E%3Croot%3E%3CmxCell%20id%3D%220%22%2F%3E%3CmxCell%20id%3D%221%22%20parent%3D%220%22%2F%3E%3CmxCell%20id%3D%222%22%20value%3D%22dID%22%20style%3D%22ellipse%3BwhiteSpace%3Dwrap%3Bhtml%3D1%3B%22%20vertex%3D%221%22%20parent%3D%221%22%3E%3CmxGeometry%20x%3D%22370%22%20y%3D%22460%22%20width%3D%2260%22%20height%3D%2240%22%20as%3D%22geometry%22%2F%3E%3C%2FmxCell%3E%3C%2Froot%3E%3C%2FmxGraphModel%3E&lt;/span&gt;" style="ellipse;whiteSpace=wrap;html=1;fontStyle=4" vertex="1" parent="1">
          <mxGeometry x="290" y="380" width="60" height="40" as="geometry" />
        </mxCell>
        <mxCell id="Wfu4o1p3sCmgXZIl0Cj2-545" style="edgeStyle=orthogonalEdgeStyle;rounded=0;orthogonalLoop=1;jettySize=auto;html=1;exitX=0.5;exitY=1;exitDx=0;exitDy=0;entryX=0.432;entryY=0.026;entryDx=0;entryDy=0;entryPerimeter=0;endArrow=none;endFill=0;strokeWidth=1;" edge="1" parent="1" source="Wfu4o1p3sCmgXZIl0Cj2-544" target="Wfu4o1p3sCmgXZIl0Cj2-5">
          <mxGeometry relative="1" as="geometry" />
        </mxCell>
        <mxCell id="Wfu4o1p3sCmgXZIl0Cj2-544" value="Abbrev" style="ellipse;whiteSpace=wrap;html=1;" vertex="1" parent="1">
          <mxGeometry x="240" y="380" width="60" height="40" as="geometry" />
        </mxCell>
        <mxCell id="Wfu4o1p3sCmgXZIl0Cj2-556" style="edgeStyle=orthogonalEdgeStyle;rounded=0;orthogonalLoop=1;jettySize=auto;html=1;exitX=0.5;exitY=0;exitDx=0;exitDy=0;entryX=1;entryY=1;entryDx=0;entryDy=0;endArrow=none;endFill=0;strokeWidth=1;" edge="1" parent="1" source="Wfu4o1p3sCmgXZIl0Cj2-546" target="Wfu4o1p3sCmgXZIl0Cj2-457">
          <mxGeometry relative="1" as="geometry" />
        </mxCell>
        <mxCell id="Wfu4o1p3sCmgXZIl0Cj2-546" value="Contents" style="ellipse;whiteSpace=wrap;html=1;" vertex="1" parent="1">
          <mxGeometry x="290" y="1020" width="60" height="40" as="geometry" />
        </mxCell>
        <mxCell id="Wfu4o1p3sCmgXZIl0Cj2-557" style="edgeStyle=orthogonalEdgeStyle;rounded=0;orthogonalLoop=1;jettySize=auto;html=1;exitX=0.5;exitY=0;exitDx=0;exitDy=0;entryX=0.25;entryY=1;entryDx=0;entryDy=0;endArrow=none;endFill=0;strokeWidth=1;" edge="1" parent="1" source="Wfu4o1p3sCmgXZIl0Cj2-489" target="Wfu4o1p3sCmgXZIl0Cj2-457">
          <mxGeometry relative="1" as="geometry" />
        </mxCell>
        <mxCell id="Wfu4o1p3sCmgXZIl0Cj2-489" value="MaxValue" style="ellipse;whiteSpace=wrap;html=1;" vertex="1" parent="1">
          <mxGeometry x="190" y="1050" width="60" height="40" as="geometry" />
        </mxCell>
      </root>
    </mxGraphModel>
  </diagram>
</mxfile>
